<?xml version="1.0" encoding="UTF-8"?>
<svg version="1.1" viewBox="0 0 512 512" xmlns="http://www.w3.org/2000/svg">
 <rect transform="rotate(45)" x="185.26" y="-176.78" width="353.55" height="353.55" rx="10" ry="10" fill="#fd5" stop-color="#000000" stroke="#000" stroke-width="4" style="-inkscape-stroke:none;font-variation-settings:'wght' 700"/>
 <path d="m196.16 140.43 20.88 77.923-83.121 22.272-5.6942-21.251-46.118 50.758 65.318 20.899-5.4276-20.256 83.121-22.272 31.549 117.74-23.607 6.3256 55.455 50.749 22.649-71.677-22.552 6.0427-31.491-117.53 40.946-10.972c10.525-2.8201 19.057-6.8257 25.598-12.015 6.6011-5.2938 11.499-11.188 14.693-17.684 3.2547-6.6004 5.1019-13.353 5.5433-20.257 0.50156-7.0083-0.0849-13.636-1.7593-19.885-2.4014-8.9624-6.5526-17.06-12.456-24.291-5.9253-7.3131-13.87-12.454-23.831-15.425-9.9833-3.0532-22.251-2.6309-36.805 1.2687zm40.008 21.534 42.427-11.368c6.249-1.6744 11.481-1.7109 15.7-0.10933 4.2186 1.6016 7.5345 4.1057 9.9457 7.5134 2.4715 3.3035 4.1706 6.6826 5.0959 10.136 1.0135 3.7823 1.234 7.7316 0.66321 11.85-0.57081 4.1187-2.335 7.898-5.2919 11.334-2.8967 3.3319-7.304 5.7903-13.224 7.3766l-42.427 11.368z" stop-color="#000000" style="font-variation-settings:'wght' 700"/>
</svg>
